<svg xmlns="http://www.w3.org/2000/svg" xmlns:xlink="http://www.w3.org/1999/xlink" width="500" zoomAndPan="magnify" viewBox="0 0 375 374.999991" height="500" preserveAspectRatio="xMidYMid meet" version="1.0"><defs><g/><clipPath id="7ae775497a"><path d="M 114.472656 73.476562 L 186 73.476562 L 186 217.429688 L 114.472656 217.429688 Z M 114.472656 73.476562 " clip-rule="nonzero"/></clipPath><clipPath id="ae1859f3db"><path d="M 189 73.476562 L 260.722656 73.476562 L 260.722656 217.429688 L 189 217.429688 Z M 189 73.476562 " clip-rule="nonzero"/></clipPath></defs><rect x="-37.5" width="450" fill="#ffffff" y="-37.499999" height="449.999989" fill-opacity="1"/><rect x="-37.5" width="450" fill="#000000" y="-37.499999" height="449.999989" fill-opacity="1"/><g fill="#ffffff" fill-opacity="1"><g transform="translate(67.933594, 272.536403)"><g><path d="M 12.449219 0 L 20.304688 0 L 20.304688 -27.222656 L 31.273438 -27.222656 L 31.273438 -34.582031 L 1.480469 -34.582031 L 1.480469 -27.222656 L 12.449219 -27.222656 Z M 12.449219 0 "/></g></g></g><g fill="#ffffff" fill-opacity="1"><g transform="translate(100.682142, 272.536403)"><g><path d="M 3.753906 0 L 11.265625 0 L 11.265625 -13.636719 C 11.265625 -17.734375 13.535156 -20.207031 16.996094 -20.207031 C 20.207031 -20.207031 22.132812 -18.03125 22.132812 -14.226562 L 22.132812 0 L 29.640625 0 L 29.640625 -14.96875 C 29.640625 -22.183594 25.589844 -26.628906 18.871094 -26.628906 C 15.957031 -26.628906 13.238281 -25.738281 11.265625 -23.960938 L 11.265625 -36.558594 L 3.753906 -36.558594 Z M 3.753906 0 "/></g></g></g><g fill="#ffffff" fill-opacity="1"><g transform="translate(133.578869, 272.536403)"><g><path d="M 16.007812 0.691406 C 22.378906 0.691406 27.417969 -2.570312 29.691406 -8.050781 L 22.082031 -8.050781 C 20.847656 -6.324219 18.625 -5.335938 16.15625 -5.335938 C 12.746094 -5.335938 10.078125 -7.261719 9.386719 -10.820312 L 30.183594 -10.820312 C 30.628906 -20.304688 24.996094 -26.628906 16.105469 -26.628906 C 7.707031 -26.628906 1.925781 -21.046875 1.925781 -12.992188 C 1.925781 -4.890625 7.65625 0.691406 16.007812 0.691406 Z M 9.4375 -15.5625 C 10.277344 -18.722656 12.84375 -20.648438 16.15625 -20.648438 C 19.613281 -20.648438 22.082031 -18.722656 22.921875 -15.5625 Z M 9.4375 -15.5625 "/></g></g></g><g fill="#ffffff" fill-opacity="1"><g transform="translate(165.635885, 272.536403)"><g/></g></g><g fill="#ffffff" fill-opacity="1"><g transform="translate(177.243592, 272.536403)"><g><path d="M 12.449219 0 L 20.304688 0 L 20.304688 -27.222656 L 31.273438 -27.222656 L 31.273438 -34.582031 L 1.480469 -34.582031 L 1.480469 -27.222656 L 12.449219 -27.222656 Z M 12.449219 0 "/></g></g></g><g fill="#ffffff" fill-opacity="1"><g transform="translate(209.99214, 272.536403)"><g><path d="M 16.007812 0.691406 C 22.378906 0.691406 27.417969 -2.570312 29.691406 -8.050781 L 22.082031 -8.050781 C 20.847656 -6.324219 18.625 -5.335938 16.15625 -5.335938 C 12.746094 -5.335938 10.078125 -7.261719 9.386719 -10.820312 L 30.183594 -10.820312 C 30.628906 -20.304688 24.996094 -26.628906 16.105469 -26.628906 C 7.707031 -26.628906 1.925781 -21.046875 1.925781 -12.992188 C 1.925781 -4.890625 7.65625 0.691406 16.007812 0.691406 Z M 9.4375 -15.5625 C 10.277344 -18.722656 12.84375 -20.648438 16.15625 -20.648438 C 19.613281 -20.648438 22.082031 -18.722656 22.921875 -15.5625 Z M 9.4375 -15.5625 "/></g></g></g><g fill="#ffffff" fill-opacity="1"><g transform="translate(242.049157, 272.536403)"><g><path d="M 16.105469 0.691406 C 23.417969 0.691406 28.902344 -3.605469 30.285156 -10.425781 L 22.972656 -10.425781 C 21.933594 -7.609375 19.367188 -5.78125 16.203125 -5.78125 C 12.152344 -5.78125 9.335938 -8.746094 9.335938 -12.992188 C 9.335938 -17.242188 12.152344 -20.207031 16.203125 -20.207031 C 19.167969 -20.207031 21.589844 -18.625 22.824219 -16.007812 L 30.035156 -16.007812 C 28.851562 -22.429688 23.316406 -26.628906 16.105469 -26.628906 C 7.804688 -26.628906 1.925781 -20.945312 1.925781 -12.992188 C 1.925781 -4.988281 7.757812 0.691406 16.105469 0.691406 Z M 16.105469 0.691406 "/></g></g></g><g fill="#ffffff" fill-opacity="1"><g transform="translate(274.155565, 272.536403)"><g><path d="M 3.753906 0 L 11.265625 0 L 11.265625 -13.636719 C 11.265625 -17.734375 13.535156 -20.207031 16.996094 -20.207031 C 20.207031 -20.207031 22.132812 -18.03125 22.132812 -14.226562 L 22.132812 0 L 29.640625 0 L 29.640625 -14.96875 C 29.640625 -22.183594 25.589844 -26.628906 18.871094 -26.628906 C 15.957031 -26.628906 13.238281 -25.738281 11.265625 -23.960938 L 11.265625 -36.558594 L 3.753906 -36.558594 Z M 3.753906 0 "/></g></g></g><g fill="#ffffff" fill-opacity="1"><g transform="translate(135.985535, 313.108602)"><g><path d="M 2.71875 -18.09375 L 10.34375 -18.09375 C 12.257812 -18.09375 13.957031 -17.710938 15.4375 -16.953125 C 16.914062 -16.203125 18.066406 -15.140625 18.890625 -13.765625 C 19.710938 -12.398438 20.125 -10.828125 20.125 -9.046875 C 20.125 -7.273438 19.710938 -5.703125 18.890625 -4.328125 C 18.066406 -2.960938 16.914062 -1.898438 15.4375 -1.140625 C 13.957031 -0.378906 12.257812 0 10.34375 0 L 2.71875 0 Z M 10.1875 -2.25 C 11.65625 -2.25 12.941406 -2.53125 14.046875 -3.09375 C 15.160156 -3.664062 16.019531 -4.460938 16.625 -5.484375 C 17.226562 -6.515625 17.53125 -7.703125 17.53125 -9.046875 C 17.53125 -10.390625 17.226562 -11.570312 16.625 -12.59375 C 16.019531 -13.625 15.160156 -14.425781 14.046875 -15 C 12.941406 -15.570312 11.65625 -15.859375 10.1875 -15.859375 L 5.296875 -15.859375 L 5.296875 -2.25 Z M 10.1875 -2.25 "/></g></g></g><g fill="#ffffff" fill-opacity="1"><g transform="translate(178.024576, 313.108602)"><g><path d="M 14.25 -4.53125 L 4.625 -4.53125 L 2.640625 0 L -0.03125 0 L 8.171875 -18.09375 L 10.734375 -18.09375 L 18.953125 0 L 16.234375 0 Z M 13.34375 -6.59375 L 9.4375 -15.46875 L 5.53125 -6.59375 Z M 13.34375 -6.59375 "/></g></g></g><g fill="#ffffff" fill-opacity="1"><g transform="translate(217.63358, 313.108602)"><g><path d="M 2.71875 -18.09375 L 10.34375 -18.09375 C 12.257812 -18.09375 13.957031 -17.710938 15.4375 -16.953125 C 16.914062 -16.203125 18.066406 -15.140625 18.890625 -13.765625 C 19.710938 -12.398438 20.125 -10.828125 20.125 -9.046875 C 20.125 -7.273438 19.710938 -5.703125 18.890625 -4.328125 C 18.066406 -2.960938 16.914062 -1.898438 15.4375 -1.140625 C 13.957031 -0.378906 12.257812 0 10.34375 0 L 2.71875 0 Z M 10.1875 -2.25 C 11.65625 -2.25 12.941406 -2.53125 14.046875 -3.09375 C 15.160156 -3.664062 16.019531 -4.460938 16.625 -5.484375 C 17.226562 -6.515625 17.53125 -7.703125 17.53125 -9.046875 C 17.53125 -10.390625 17.226562 -11.570312 16.625 -12.59375 C 16.019531 -13.625 15.160156 -14.425781 14.046875 -15 C 12.941406 -15.570312 11.65625 -15.859375 10.1875 -15.859375 L 5.296875 -15.859375 L 5.296875 -2.25 Z M 10.1875 -2.25 "/></g></g></g><g clip-path="url(#7ae775497a)"><path fill="#ffffff" d="M 127.484375 172.050781 C 127.796875 179.636719 130.613281 186.316406 136.941406 190.804688 C 140.457031 193.320312 144.8125 194.929688 149.105469 195.574219 L 149.105469 199.386719 C 149.105469 204.191406 151.007812 208.765625 154.40625 212.160156 C 157.804688 215.554688 162.375 217.460938 167.179688 217.460938 C 171.980469 217.460938 176.558594 215.554688 179.953125 212.160156 C 183.351562 208.761719 185.253906 204.1875 185.253906 199.386719 L 185.253906 91.507812 C 185.253906 86.699219 183.351562 82.128906 179.953125 78.734375 C 176.5625 75.335938 171.988281 73.429688 167.183594 73.429688 C 163.355469 73.429688 159.644531 74.640625 156.5625 76.894531 L 156.527344 76.925781 C 153.976562 78.78125 151.957031 81.285156 150.679688 84.167969 C 143.835938 83.160156 137.589844 84.914062 133.035156 90.347656 C 130.582031 93.25 128.761719 97.144531 127.867188 100.867188 C 120.0625 106.949219 114.527344 115.121094 114.925781 125.339844 C 115.121094 130.394531 116.863281 135.796875 119.566406 140.101562 C 116.746094 147.574219 115.007812 156.652344 118.917969 164.042969 C 120.773438 167.574219 123.855469 170.425781 127.484375 172.050781 Z M 123.441406 142.507812 C 129.804688 143.800781 135.917969 141.910156 139.960938 136.609375 C 141.933594 135.882812 144.21875 135.582031 146.289062 135.714844 C 150.234375 135.996094 153.582031 137.804688 156.28125 140.601562 C 155.835938 141.378906 155.601562 142.273438 155.601562 143.1875 C 155.601562 146.050781 157.921875 148.371094 160.789062 148.371094 C 163.65625 148.371094 165.972656 146.050781 165.972656 143.1875 C 165.972656 140.320312 163.65625 138 160.789062 138 C 160.539062 138 160.292969 138.019531 160.042969 138.050781 C 155.503906 133.0625 149.535156 130.5625 142.910156 131.355469 C 143.191406 130.695312 143.441406 130.015625 143.65625 129.320312 C 146.058594 128.839844 147.816406 126.71875 147.816406 124.230469 C 147.816406 121.367188 145.496094 119.046875 142.628906 119.046875 C 139.78125 119.046875 137.441406 121.367188 137.441406 124.230469 C 137.441406 125.773438 138.140625 127.230469 139.296875 128.207031 C 137.824219 132.546875 135.1875 136.507812 130.585938 137.898438 C 128.347656 138.5625 125.746094 138.546875 123.476562 137.929688 C 121.222656 134.453125 119.730469 129.960938 119.484375 125.867188 C 118.921875 117.382812 123.230469 110.542969 129.523438 105.273438 C 133.652344 109.863281 139.382812 112.132812 145.5625 111.136719 C 146.542969 112.148438 147.882812 112.730469 149.292969 112.730469 C 152.160156 112.730469 154.480469 110.410156 154.480469 107.542969 C 154.480469 104.679688 152.160156 102.359375 149.292969 102.359375 C 146.691406 102.359375 144.523438 104.28125 144.171875 106.816406 C 139.519531 107.3125 135.160156 105.289062 132.292969 101.628906 C 133.054688 98.582031 134.578125 95.414062 136.636719 93.082031 C 140.597656 88.625 145.878906 87.664062 151.550781 88.855469 L 151.582031 88.855469 C 153.6875 89.550781 155.835938 91.089844 157.230469 92.765625 C 160.429688 96.644531 160.429688 101.582031 159.171875 106.207031 C 156.539062 106.453125 154.480469 108.671875 154.480469 111.375 C 154.480469 114.238281 156.800781 116.558594 159.667969 116.558594 C 162.535156 116.558594 164.855469 114.238281 164.855469 111.375 C 164.855469 110.015625 164.320312 108.722656 163.394531 107.761719 C 164.953125 102.34375 165.117188 96.542969 162.003906 91.621094 C 160.316406 88.972656 157.8125 86.867188 155.011719 85.476562 C 155.992188 83.503906 157.433594 81.796875 159.207031 80.503906 C 161.527344 78.816406 164.308594 77.902344 167.191406 77.902344 C 170.804688 77.902344 174.234375 79.34375 176.800781 81.894531 C 179.355469 84.449219 180.792969 87.878906 180.792969 91.507812 L 180.792969 133.855469 C 177.761719 128.574219 173.386719 123.964844 167.355469 122.292969 C 166.890625 119.890625 164.773438 118.117188 162.269531 118.117188 C 159.402344 118.117188 157.082031 120.4375 157.082031 123.300781 C 157.082031 126.167969 159.402344 128.488281 162.269531 128.488281 C 163.824219 128.488281 165.285156 127.792969 166.261719 126.617188 C 174.097656 128.886719 178.984375 138.261719 180.792969 145.6875 L 180.792969 192.210938 C 178.339844 188.5 174.742188 186.265625 169.9375 186.082031 C 168.960938 184.773438 167.421875 183.976562 165.761719 183.976562 C 162.898438 183.976562 160.578125 186.296875 160.578125 189.164062 C 160.578125 192.03125 162.898438 194.351562 165.761719 194.351562 C 168.082031 194.351562 170.085938 192.824219 170.734375 190.65625 C 177.0625 191.585938 179.582031 198.410156 179.929688 204.125 C 179.25 205.949219 178.171875 207.605469 176.800781 209 C 174.234375 211.550781 170.800781 212.992188 167.1875 212.992188 C 163.574219 212.992188 160.128906 211.550781 157.578125 209 C 155.023438 206.433594 153.585938 203 153.585938 199.386719 L 153.585938 194.550781 C 158.507812 189.878906 162.664062 183.234375 165.265625 177.019531 C 166.757812 176.707031 168.414062 176.589844 169.921875 176.804688 C 170.171875 179.4375 172.390625 181.527344 175.089844 181.527344 C 177.953125 181.527344 180.273438 179.191406 180.273438 176.339844 C 180.273438 173.476562 177.953125 171.15625 175.089844 171.15625 C 173.765625 171.15625 172.488281 171.652344 171.527344 172.5625 C 170.050781 172.25 168.507812 172.183594 167.003906 172.300781 C 167.828125 169.730469 168.460938 167.097656 168.90625 164.445312 C 171.0625 163.78125 172.550781 161.777344 172.550781 159.492188 C 172.550781 156.625 170.230469 154.304688 167.367188 154.304688 C 164.5 154.304688 162.179688 156.625 162.179688 159.492188 C 162.179688 161.230469 163.054688 162.839844 164.480469 163.800781 C 163.304688 170.578125 160.871094 177.074219 157.226562 182.902344 C 155.386719 185.820312 153.082031 188.867188 150.546875 191.273438 C 146.96875 190.875 143.140625 189.550781 140.175781 187.5625 C 134.292969 183.636719 131.957031 177.554688 131.921875 170.644531 C 132.238281 168.359375 133.199219 165.738281 134.242188 163.703125 C 136.480469 159.378906 139.828125 155.949219 144.136719 153.679688 C 144.914062 154.140625 145.824219 154.390625 146.753906 154.390625 C 149.601562 154.390625 151.921875 152.070312 151.921875 149.203125 C 151.921875 146.335938 149.601562 144.015625 146.753906 144.015625 C 143.890625 144.015625 141.570312 146.335938 141.570312 149.203125 C 141.570312 149.453125 141.585938 149.699219 141.617188 149.949219 C 134.890625 153.660156 130.070312 159.972656 128.0625 167.34375 C 125.5625 165.886719 123.605469 163.652344 122.460938 160.964844 C 119.996094 155.214844 121.402344 148.207031 123.441406 142.507812 Z M 123.441406 142.507812 " fill-opacity="1" fill-rule="evenodd"/></g><g clip-path="url(#ae1859f3db)"><path fill="#ffffff" d="M 247.523438 172.050781 C 247.195312 179.636719 244.378906 186.316406 238.066406 190.804688 C 234.550781 193.320312 230.195312 194.929688 225.902344 195.574219 L 225.902344 199.386719 C 225.902344 204.191406 224 208.765625 220.601562 212.160156 C 217.203125 215.554688 212.632812 217.460938 207.828125 217.460938 C 203.023438 217.460938 198.449219 215.554688 195.054688 212.160156 C 191.65625 208.761719 189.753906 204.1875 189.753906 199.386719 L 189.753906 91.507812 C 189.753906 86.699219 191.65625 82.128906 195.054688 78.734375 C 198.453125 75.339844 203.019531 73.429688 207.824219 73.429688 C 211.652344 73.429688 215.347656 74.640625 218.445312 76.894531 L 218.480469 76.925781 C 221.015625 78.78125 223.035156 81.285156 224.328125 84.167969 C 231.171875 83.160156 237.398438 84.914062 241.972656 90.347656 C 244.425781 93.25 246.246094 97.144531 247.128906 100.867188 C 254.933594 106.949219 260.480469 115.117188 260.066406 125.339844 C 259.867188 130.394531 258.144531 135.796875 255.441406 140.101562 C 258.242188 147.574219 260 156.652344 256.089844 164.042969 C 254.234375 167.574219 251.15625 170.425781 247.523438 172.050781 Z M 251.566406 142.507812 C 245.203125 143.800781 239.089844 141.910156 235.03125 136.609375 C 233.074219 135.882812 230.773438 135.582031 228.699219 135.714844 C 224.757812 135.996094 221.425781 137.804688 218.707031 140.601562 C 219.171875 141.378906 219.40625 142.273438 219.40625 143.1875 C 219.40625 146.050781 217.085938 148.371094 214.21875 148.371094 C 211.351562 148.371094 209.035156 146.050781 209.035156 143.1875 C 209.035156 140.320312 211.351562 138 214.21875 138 C 214.46875 138 214.714844 138.019531 214.964844 138.050781 C 219.503906 133.0625 225.472656 130.5625 232.097656 131.355469 C 231.816406 130.695312 231.566406 130.015625 231.335938 129.320312 C 228.949219 128.839844 227.179688 126.71875 227.179688 124.230469 C 227.179688 121.367188 229.5 119.046875 232.363281 119.046875 C 235.230469 119.046875 237.550781 121.367188 237.550781 124.230469 C 237.550781 125.773438 236.871094 127.230469 235.695312 128.207031 C 237.1875 132.546875 239.820312 136.507812 244.425781 137.898438 C 246.664062 138.5625 249.265625 138.546875 251.535156 137.929688 C 253.789062 134.453125 255.261719 129.960938 255.527344 125.867188 C 256.074219 117.382812 251.78125 110.542969 245.46875 105.273438 C 241.359375 109.863281 235.628906 112.132812 229.429688 111.136719 C 228.46875 112.148438 227.125 112.730469 225.699219 112.730469 C 222.835938 112.730469 220.515625 110.410156 220.515625 107.542969 C 220.515625 104.679688 222.835938 102.359375 225.699219 102.359375 C 228.320312 102.359375 230.488281 104.28125 230.835938 106.816406 C 235.492188 107.3125 239.851562 105.289062 242.714844 101.628906 C 241.957031 98.582031 240.429688 95.414062 238.359375 93.082031 C 234.414062 88.625 229.128906 87.664062 223.460938 88.855469 L 223.429688 88.855469 C 221.324219 89.550781 219.171875 91.089844 217.777344 92.765625 C 214.582031 96.644531 214.582031 101.582031 215.839844 106.207031 C 218.472656 106.453125 220.527344 108.671875 220.527344 111.375 C 220.527344 114.238281 218.210938 116.558594 215.34375 116.558594 C 212.476562 116.558594 210.15625 114.238281 210.15625 111.375 C 210.15625 110.015625 210.6875 108.722656 211.613281 107.761719 C 210.058594 102.34375 209.894531 96.542969 213.003906 91.621094 C 214.695312 88.972656 217.199219 86.867188 219.996094 85.476562 C 219.019531 83.503906 217.578125 81.796875 215.804688 80.503906 C 213.46875 78.816406 210.703125 77.902344 207.820312 77.902344 C 204.207031 77.902344 200.761719 79.34375 198.207031 81.894531 C 195.65625 84.449219 194.214844 87.878906 194.214844 91.507812 L 194.214844 133.855469 C 197.246094 128.574219 201.625 123.964844 207.652344 122.292969 C 208.117188 119.890625 210.238281 118.117188 212.742188 118.117188 C 215.589844 118.117188 217.910156 120.4375 217.910156 123.300781 C 217.910156 126.167969 215.589844 128.488281 212.742188 128.488281 C 211.183594 128.488281 209.722656 127.792969 208.75 126.617188 C 200.910156 128.886719 196.007812 138.261719 194.21875 145.6875 L 194.21875 192.210938 C 196.671875 188.5 200.265625 186.265625 205.074219 186.082031 C 206.050781 184.773438 207.589844 183.976562 209.230469 183.976562 C 212.097656 183.976562 214.417969 186.296875 214.417969 189.164062 C 214.417969 192.03125 212.097656 194.351562 209.230469 194.351562 C 206.929688 194.351562 204.921875 192.824219 204.277344 190.65625 C 197.945312 191.585938 195.410156 198.410156 195.082031 204.125 C 195.761719 205.949219 196.835938 207.605469 198.210938 209 C 200.761719 211.550781 204.210938 212.992188 207.824219 212.992188 C 211.433594 212.992188 214.863281 211.550781 217.417969 209 C 219.984375 206.433594 221.425781 203 221.425781 199.386719 L 221.425781 194.550781 C 216.503906 189.878906 212.328125 183.234375 209.726562 177.019531 C 208.234375 176.707031 206.597656 176.589844 205.074219 176.804688 C 204.839844 179.4375 202.617188 181.527344 199.917969 181.527344 C 197.050781 181.527344 194.734375 179.191406 194.734375 176.339844 C 194.734375 173.476562 197.050781 171.15625 199.917969 171.15625 C 201.242188 171.15625 202.503906 171.652344 203.464844 172.5625 C 204.9375 172.25 206.480469 172.183594 207.988281 172.300781 C 207.175781 169.730469 206.546875 167.097656 206.082031 164.445312 C 203.945312 163.78125 202.453125 161.777344 202.453125 159.492188 C 202.453125 156.625 204.773438 154.304688 207.640625 154.304688 C 210.503906 154.304688 212.824219 156.625 212.824219 159.492188 C 212.824219 161.230469 211.949219 162.839844 210.523438 163.800781 C 211.679688 170.578125 214.117188 177.074219 217.777344 182.902344 C 219.601562 185.820312 221.921875 188.867188 224.441406 191.273438 C 228.035156 190.875 231.847656 189.550781 234.828125 187.5625 C 240.710938 183.636719 243.046875 177.554688 243.082031 170.644531 C 242.75 168.359375 241.789062 165.738281 240.746094 163.703125 C 238.523438 159.378906 235.179688 155.949219 230.871094 153.679688 C 230.074219 154.140625 229.179688 154.390625 228.25 154.390625 C 225.382812 154.390625 223.0625 152.070312 223.0625 149.203125 C 223.0625 146.335938 225.382812 144.015625 228.25 144.015625 C 231.117188 144.015625 233.4375 146.335938 233.4375 149.203125 C 233.4375 149.453125 233.417969 149.699219 233.386719 149.949219 C 240.113281 153.660156 244.917969 159.972656 246.921875 167.34375 C 249.441406 165.886719 251.398438 163.652344 252.539062 160.964844 C 255.011719 155.214844 253.605469 148.207031 251.566406 142.507812 Z M 251.566406 142.507812 " fill-opacity="1" fill-rule="evenodd"/></g><path fill="#00bf63" d="M 251.566406 142.507812 C 245.203125 143.800781 239.089844 141.910156 235.03125 136.609375 C 233.074219 135.882812 230.773438 135.582031 228.699219 135.714844 C 224.757812 135.996094 221.425781 137.804688 218.707031 140.601562 C 219.171875 141.378906 219.40625 142.273438 219.40625 143.1875 C 219.40625 146.050781 217.085938 148.371094 214.21875 148.371094 C 211.351562 148.371094 209.035156 146.050781 209.035156 143.1875 C 209.035156 140.320312 211.351562 138 214.21875 138 C 214.46875 138 214.714844 138.019531 214.964844 138.050781 C 219.503906 133.0625 225.472656 130.5625 232.097656 131.355469 C 231.816406 130.695312 231.566406 130.015625 231.335938 129.320312 C 228.949219 128.839844 227.179688 126.71875 227.179688 124.230469 C 227.179688 121.367188 229.5 119.046875 232.363281 119.046875 C 235.230469 119.046875 237.550781 121.367188 237.550781 124.230469 C 237.550781 125.773438 236.871094 127.230469 235.695312 128.207031 C 237.1875 132.546875 239.820312 136.507812 244.425781 137.898438 C 246.664062 138.5625 249.265625 138.546875 251.535156 137.929688 C 253.789062 134.453125 255.261719 129.960938 255.527344 125.867188 C 256.074219 117.382812 251.78125 110.542969 245.46875 105.273438 C 241.359375 109.863281 235.628906 112.132812 229.429688 111.136719 C 228.46875 112.148438 227.125 112.730469 225.699219 112.730469 C 222.835938 112.730469 220.515625 110.410156 220.515625 107.542969 C 220.515625 104.679688 222.835938 102.359375 225.699219 102.359375 C 228.320312 102.359375 230.488281 104.28125 230.835938 106.816406 C 235.492188 107.3125 239.851562 105.289062 242.714844 101.628906 C 241.957031 98.582031 240.429688 95.414062 238.359375 93.082031 C 234.414062 88.625 229.128906 87.664062 223.460938 88.855469 L 223.429688 88.855469 C 221.324219 89.550781 219.171875 91.089844 217.777344 92.765625 C 214.582031 96.644531 214.582031 101.582031 215.839844 106.207031 C 218.472656 106.453125 220.527344 108.671875 220.527344 111.375 C 220.527344 114.238281 218.210938 116.558594 215.34375 116.558594 C 212.476562 116.558594 210.15625 114.238281 210.15625 111.375 C 210.15625 110.015625 210.6875 108.722656 211.613281 107.761719 C 210.058594 102.34375 209.894531 96.542969 213.003906 91.621094 C 214.695312 88.972656 217.199219 86.867188 219.996094 85.476562 C 219.019531 83.503906 217.578125 81.796875 215.804688 80.503906 C 213.46875 78.816406 210.703125 77.902344 207.820312 77.902344 C 204.207031 77.902344 200.761719 79.34375 198.207031 81.894531 C 195.65625 84.449219 194.214844 87.878906 194.214844 91.507812 L 194.214844 133.855469 C 197.246094 128.574219 201.625 123.964844 207.652344 122.292969 C 208.117188 119.890625 210.238281 118.117188 212.742188 118.117188 C 215.589844 118.117188 217.910156 120.4375 217.910156 123.300781 C 217.910156 126.167969 215.589844 128.488281 212.742188 128.488281 C 211.183594 128.488281 209.722656 127.792969 208.75 126.617188 C 200.910156 128.886719 196.007812 138.261719 194.21875 145.6875 L 194.21875 192.210938 C 196.671875 188.5 200.265625 186.265625 205.074219 186.082031 C 206.050781 184.773438 207.589844 183.976562 209.230469 183.976562 C 212.097656 183.976562 214.417969 186.296875 214.417969 189.164062 C 214.417969 192.03125 212.097656 194.351562 209.230469 194.351562 C 206.929688 194.351562 204.921875 192.824219 204.277344 190.65625 C 197.945312 191.585938 195.410156 198.410156 195.082031 204.125 C 195.761719 205.949219 196.835938 207.605469 198.210938 209 C 200.761719 211.550781 204.210938 212.992188 207.824219 212.992188 C 211.433594 212.992188 214.863281 211.550781 217.417969 209 C 219.984375 206.433594 221.425781 203 221.425781 199.386719 L 221.425781 194.550781 C 216.503906 189.878906 212.328125 183.234375 209.726562 177.019531 C 208.234375 176.707031 206.597656 176.589844 205.074219 176.804688 C 204.839844 179.4375 202.617188 181.527344 199.917969 181.527344 C 197.050781 181.527344 194.734375 179.191406 194.734375 176.339844 C 194.734375 173.476562 197.050781 171.15625 199.917969 171.15625 C 201.242188 171.15625 202.503906 171.652344 203.464844 172.5625 C 204.9375 172.25 206.480469 172.183594 207.988281 172.300781 C 207.175781 169.730469 206.546875 167.097656 206.082031 164.445312 C 203.945312 163.78125 202.453125 161.777344 202.453125 159.492188 C 202.453125 156.625 204.773438 154.304688 207.640625 154.304688 C 210.503906 154.304688 212.824219 156.625 212.824219 159.492188 C 212.824219 161.230469 211.949219 162.839844 210.523438 163.800781 C 211.679688 170.578125 214.117188 177.074219 217.777344 182.902344 C 219.601562 185.820312 221.921875 188.867188 224.441406 191.273438 C 228.035156 190.875 231.847656 189.550781 234.828125 187.5625 C 240.710938 183.636719 243.046875 177.554688 243.082031 170.644531 C 242.75 168.359375 241.789062 165.738281 240.746094 163.703125 C 238.523438 159.378906 235.179688 155.949219 230.871094 153.679688 C 230.074219 154.140625 229.179688 154.390625 228.25 154.390625 C 225.382812 154.390625 223.0625 152.070312 223.0625 149.203125 C 223.0625 146.335938 225.382812 144.015625 228.25 144.015625 C 231.117188 144.015625 233.4375 146.335938 233.4375 149.203125 C 233.4375 149.453125 233.417969 149.699219 233.386719 149.949219 C 240.113281 153.660156 244.917969 159.972656 246.921875 167.34375 C 249.441406 165.886719 251.398438 163.652344 252.539062 160.964844 C 255.011719 155.214844 253.605469 148.207031 251.566406 142.507812 Z M 251.566406 142.507812 " fill-opacity="1" fill-rule="evenodd"/><path fill="#000000" d="M 123.441406 142.507812 C 129.804688 143.800781 135.917969 141.910156 139.960938 136.609375 C 141.933594 135.882812 144.21875 135.582031 146.289062 135.714844 C 150.234375 135.996094 153.582031 137.804688 156.28125 140.601562 C 155.835938 141.378906 155.601562 142.273438 155.601562 143.1875 C 155.601562 146.050781 157.921875 148.371094 160.789062 148.371094 C 163.65625 148.371094 165.972656 146.050781 165.972656 143.1875 C 165.972656 140.320312 163.65625 138 160.789062 138 C 160.539062 138 160.292969 138.019531 160.042969 138.050781 C 155.503906 133.0625 149.535156 130.5625 142.910156 131.355469 C 143.191406 130.695312 143.441406 130.015625 143.65625 129.320312 C 146.058594 128.839844 147.816406 126.71875 147.816406 124.230469 C 147.816406 121.367188 145.496094 119.046875 142.628906 119.046875 C 139.78125 119.046875 137.441406 121.367188 137.441406 124.230469 C 137.441406 125.773438 138.140625 127.230469 139.296875 128.207031 C 137.824219 132.546875 135.1875 136.507812 130.585938 137.898438 C 128.347656 138.5625 125.746094 138.546875 123.476562 137.929688 C 121.222656 134.453125 119.730469 129.960938 119.484375 125.867188 C 118.921875 117.382812 123.230469 110.542969 129.523438 105.273438 C 133.652344 109.863281 139.382812 112.132812 145.5625 111.136719 C 146.542969 112.148438 147.882812 112.730469 149.292969 112.730469 C 152.160156 112.730469 154.480469 110.410156 154.480469 107.542969 C 154.480469 104.679688 152.160156 102.359375 149.292969 102.359375 C 146.691406 102.359375 144.523438 104.28125 144.171875 106.816406 C 139.519531 107.3125 135.160156 105.289062 132.292969 101.628906 C 133.054688 98.582031 134.578125 95.414062 136.636719 93.082031 C 140.597656 88.625 145.878906 87.664062 151.550781 88.855469 L 151.582031 88.855469 C 153.6875 89.550781 155.835938 91.089844 157.230469 92.765625 C 160.429688 96.644531 160.429688 101.582031 159.171875 106.207031 C 156.539062 106.453125 154.480469 108.671875 154.480469 111.375 C 154.480469 114.238281 156.800781 116.558594 159.667969 116.558594 C 162.535156 116.558594 164.855469 114.238281 164.855469 111.375 C 164.855469 110.015625 164.320312 108.722656 163.394531 107.761719 C 164.953125 102.34375 165.117188 96.542969 162.003906 91.621094 C 160.316406 88.972656 157.8125 86.867188 155.011719 85.476562 C 155.992188 83.503906 157.433594 81.796875 159.207031 80.503906 C 161.527344 78.816406 164.308594 77.902344 167.191406 77.902344 C 170.804688 77.902344 174.234375 79.34375 176.800781 81.894531 C 179.355469 84.449219 180.792969 87.878906 180.792969 91.507812 L 180.792969 133.855469 C 177.761719 128.574219 173.386719 123.964844 167.355469 122.292969 C 166.890625 119.890625 164.773438 118.117188 162.269531 118.117188 C 159.402344 118.117188 157.082031 120.4375 157.082031 123.300781 C 157.082031 126.167969 159.402344 128.488281 162.269531 128.488281 C 163.824219 128.488281 165.285156 127.792969 166.261719 126.617188 C 174.097656 128.886719 178.984375 138.261719 180.792969 145.6875 L 180.792969 192.210938 C 178.339844 188.5 174.742188 186.265625 169.9375 186.082031 C 168.960938 184.773438 167.421875 183.976562 165.761719 183.976562 C 162.898438 183.976562 160.578125 186.296875 160.578125 189.164062 C 160.578125 192.03125 162.898438 194.351562 165.761719 194.351562 C 168.082031 194.351562 170.085938 192.824219 170.734375 190.65625 C 177.0625 191.585938 179.582031 198.410156 179.929688 204.125 C 179.25 205.949219 178.171875 207.605469 176.800781 209 C 174.234375 211.550781 170.800781 212.992188 167.1875 212.992188 C 163.574219 212.992188 160.128906 211.550781 157.578125 209 C 155.023438 206.433594 153.585938 203 153.585938 199.386719 L 153.585938 194.550781 C 158.507812 189.878906 162.664062 183.234375 165.265625 177.019531 C 166.757812 176.707031 168.414062 176.589844 169.921875 176.804688 C 170.171875 179.4375 172.390625 181.527344 175.089844 181.527344 C 177.953125 181.527344 180.273438 179.191406 180.273438 176.339844 C 180.273438 173.476562 177.953125 171.15625 175.089844 171.15625 C 173.765625 171.15625 172.488281 171.652344 171.527344 172.5625 C 170.050781 172.25 168.507812 172.183594 167.003906 172.300781 C 167.828125 169.730469 168.460938 167.097656 168.90625 164.445312 C 171.0625 163.78125 172.550781 161.777344 172.550781 159.492188 C 172.550781 156.625 170.230469 154.304688 167.367188 154.304688 C 164.5 154.304688 162.179688 156.625 162.179688 159.492188 C 162.179688 161.230469 163.054688 162.839844 164.480469 163.800781 C 163.304688 170.578125 160.871094 177.074219 157.226562 182.902344 C 155.386719 185.820312 153.082031 188.867188 150.546875 191.273438 C 146.96875 190.875 143.140625 189.550781 140.175781 187.5625 C 134.292969 183.636719 131.957031 177.554688 131.921875 170.644531 C 132.238281 168.359375 133.199219 165.738281 134.242188 163.703125 C 136.480469 159.378906 139.828125 155.949219 144.136719 153.679688 C 144.914062 154.140625 145.824219 154.390625 146.753906 154.390625 C 149.601562 154.390625 151.921875 152.070312 151.921875 149.203125 C 151.921875 146.335938 149.601562 144.015625 146.753906 144.015625 C 143.890625 144.015625 141.570312 146.335938 141.570312 149.203125 C 141.570312 149.453125 141.585938 149.699219 141.617188 149.949219 C 134.890625 153.660156 130.070312 159.972656 128.0625 167.34375 C 125.5625 165.886719 123.605469 163.652344 122.460938 160.964844 C 119.996094 155.214844 121.402344 148.207031 123.441406 142.507812 Z M 123.441406 142.507812 " fill-opacity="1" fill-rule="evenodd"/></svg>